HIERARCHY
ROOT Hips
{
	OFFSET 0.000000 71.427986 0.000000
	CHANNELS 6 Xposition Yposition Zposition Xrotation Yrotation Zrotation
	JOINT Pelvis
	{
		OFFSET 0.000000 0.000000 0.000000
		CHANNELS 3 Xrotation Yrotation Zrotation
		JOINT LeftUpLeg
		{
			OFFSET 6.797100 -2.508499 -1.318700
			CHANNELS 3 Xrotation Yrotation Zrotation
			JOINT LeftLeg
			{
				OFFSET 0.069008 -29.241863 0.690200
				CHANNELS 3 Xrotation Yrotation Zrotation
				JOINT LeftFoot
				{
					OFFSET -0.069008 -29.568123 -0.266800
					CHANNELS 3 Xrotation Yrotation Zrotation
					JOINT LeftToeBase
					{
						OFFSET 3.145500 -8.631000 16.059900
						CHANNELS 3 Xrotation Yrotation Zrotation
						End Site
						{
							OFFSET 0.000000 18.501587 0.000000
						}
					}
				}
			}
			JOINT Left_ShortSleeve
			{
				OFFSET 0.265923 -10.480953 1.153800
				CHANNELS 3 Xrotation Yrotation Zrotation
				End Site
				{
					OFFSET 1.725763 19.823879 0.000000
				}
			}
		}
		JOINT RightUpLeg
		{
			OFFSET -6.797100 -2.508499 -1.318700
			CHANNELS 3 Xrotation Yrotation Zrotation
			JOINT RightLeg
			{
				OFFSET -0.082453 -29.241932 0.688000
				CHANNELS 3 Xrotation Yrotation Zrotation
				JOINT RightFoot
				{
					OFFSET 0.082453 -29.568058 -0.264600
					CHANNELS 3 Xrotation Yrotation Zrotation
					JOINT RightToeBase
					{
						OFFSET -3.115300 -8.682800 16.113400
						CHANNELS 3 Xrotation Yrotation Zrotation
						End Site
						{
							OFFSET 0.000000 18.567114 0.000000
						}
					}
				}
			}
			JOINT Right_ShortSleeve
			{
				OFFSET -0.265923 -10.480953 1.153800
				CHANNELS 3 Xrotation Yrotation Zrotation
				End Site
				{
					OFFSET -1.725766 19.823910 0.000000
				}
			}
		}
	}
	JOINT Spine
	{
		OFFSET 0.000000 13.368103 0.470500
		CHANNELS 3 Xrotation Yrotation Zrotation
		JOINT Spine1
		{
			OFFSET 0.147000 13.837402 0.538800
			CHANNELS 3 Xrotation Yrotation Zrotation
			JOINT Spine2
			{
				OFFSET 0.168000 16.242897 -1.435500
				CHANNELS 3 Xrotation Yrotation Zrotation
				JOINT Neck
				{
					OFFSET 0.217200 18.631500 -1.679100
					CHANNELS 3 Xrotation Yrotation Zrotation
					JOINT Head
					{
						OFFSET 0.000000 6.599396 1.385900
						CHANNELS 3 Xrotation Yrotation Zrotation
						JOINT Hat
						{
							OFFSET -0.532200 27.220596 -10.096100
							CHANNELS 3 Xrotation Yrotation Zrotation
							End Site
							{
								OFFSET 0.000000 22.029861 0.000000
							}
						}
						JOINT HairD
						{
							OFFSET -10.777400 17.437393 -1.325900
							CHANNELS 3 Xrotation Yrotation Zrotation
							JOINT HairD1
							{
								OFFSET -3.290299 -11.051193 1.062200
								CHANNELS 3 Xrotation Yrotation Zrotation
								End Site
								{
									OFFSET 0.000000 11.579437 0.000000
								}
							}
						}
						JOINT HairB
						{
							OFFSET -10.777400 17.437393 1.467900
							CHANNELS 3 Xrotation Yrotation Zrotation
							JOINT HairB1
							{
								OFFSET -1.561200 -12.956299 3.590200
								CHANNELS 3 Xrotation Yrotation Zrotation
								End Site
								{
									OFFSET 0.000000 13.534866 0.000000
								}
							}
						}
						JOINT HairA
						{
							OFFSET 9.713100 17.437393 1.467900
							CHANNELS 3 Xrotation Yrotation Zrotation
							JOINT HairA1
							{
								OFFSET 1.561200 -12.956299 3.590200
								CHANNELS 3 Xrotation Yrotation Zrotation
								End Site
								{
									OFFSET 0.000000 13.534866 0.000000
								}
							}
						}
						JOINT HairC
						{
							OFFSET 9.713100 17.437393 -1.325900
							CHANNELS 3 Xrotation Yrotation Zrotation
							JOINT HairC1
							{
								OFFSET 3.290300 -11.051193 1.062200
								CHANNELS 3 Xrotation Yrotation Zrotation
								End Site
								{
									OFFSET 0.000000 11.579437 0.000000
								}
							}
						}
					}
				}
				JOINT LeftShoulder
				{
					OFFSET 5.101800 15.108002 -2.763700
					CHANNELS 3 Xrotation Yrotation Zrotation
					JOINT LeftArm
					{
						OFFSET 9.825497 2.506317 -1.597400
						CHANNELS 3 Xrotation Yrotation Zrotation
						JOINT LeftForeArm
						{
							OFFSET 21.966244 0.000000 0.000000
							CHANNELS 3 Xrotation Yrotation Zrotation
							JOINT LeftHand
							{
								OFFSET 33.879036 0.000000 0.000000
								CHANNELS 3 Xrotation Yrotation Zrotation
								JOINT LeftHandThumb1
								{
									OFFSET 6.715286 -2.359680 3.363841
									CHANNELS 3 Xrotation Yrotation Zrotation
									JOINT LeftHandThumb2
									{
										OFFSET 2.507072 -1.447464 1.447461
										CHANNELS 3 Xrotation Yrotation Zrotation
										JOINT LeftHandThumb3
										{
											OFFSET 2.898338 -1.673355 1.673357
											CHANNELS 3 Xrotation Yrotation Zrotation
											End Site
											{
												OFFSET -0.295959 3.727692 -0.131651
											}
										}
									}
								}
								JOINT LeftHandIndex1
								{
									OFFSET 14.190811 -0.254547 3.840278
									CHANNELS 3 Xrotation Yrotation Zrotation
									JOINT LeftHandIndex2
									{
										OFFSET 3.551727 0.000000 -0.000000
										CHANNELS 3 Xrotation Yrotation Zrotation
										JOINT LeftHandIndex3
										{
											OFFSET 2.894196 0.000000 0.000000
											CHANNELS 3 Xrotation Yrotation Zrotation
											End Site
											{
												OFFSET -1.000603 2.690872 0.366626
											}
										}
									}
								}
								JOINT LeftHandMiddle1
								{
									OFFSET 13.776489 0.000000 0.000000
									CHANNELS 3 Xrotation Yrotation Zrotation
									JOINT LeftHandMiddle2
									{
										OFFSET 3.438232 0.000000 0.000000
										CHANNELS 3 Xrotation Yrotation Zrotation
										JOINT LeftHandMiddle3
										{
											OFFSET 3.691551 0.000000 0.000000
											CHANNELS 3 Xrotation Yrotation Zrotation
											End Site
											{
												OFFSET -1.082298 3.499527 0.457670
											}
										}
									}
								}
								JOINT LeftHandRing1
								{
									OFFSET 13.966164 -0.268127 -3.067488
									CHANNELS 3 Xrotation Yrotation Zrotation
									JOINT LeftHandRing2
									{
										OFFSET 3.162567 0.000000 0.000000
										CHANNELS 3 Xrotation Yrotation Zrotation
										JOINT LeftHandRing3
										{
											OFFSET 3.324348 0.000000 0.000000
											CHANNELS 3 Xrotation Yrotation Zrotation
											End Site
											{
												OFFSET -0.861900 3.184998 0.405154
											}
										}
									}
								}
								JOINT LeftHandPinky1
								{
									OFFSET 13.131393 -0.168503 -5.746925
									CHANNELS 3 Xrotation Yrotation Zrotation
									JOINT LeftHandPinky2
									{
										OFFSET 2.849182 0.000000 0.000000
										CHANNELS 3 Xrotation Yrotation Zrotation
										JOINT LeftHandPinky3
										{
											OFFSET 2.805038 0.000000 0.000000
											CHANNELS 3 Xrotation Yrotation Zrotation
											End Site
											{
												OFFSET -0.882500 2.642609 0.325652
											}
										}
									}
								}
							}
							JOINT Left_Sleeve
							{
								OFFSET 6.592125 -0.646545 0.805568
								CHANNELS 3 Xrotation Yrotation Zrotation
								End Site
								{
									OFFSET -0.000179 20.275787 -0.000000
								}
							}
						}
					}
				}
				JOINT RightShoulder
				{
					OFFSET -5.731700 15.108002 -2.763700
					CHANNELS 3 Xrotation Yrotation Zrotation
					JOINT RightArm
					{
						OFFSET -9.825497 2.506317 -1.597400
						CHANNELS 3 Xrotation Yrotation Zrotation
						JOINT RightForeArm
						{
							OFFSET -21.966242 0.000000 0.000000
							CHANNELS 3 Xrotation Yrotation Zrotation
							JOINT RightHand
							{
								OFFSET -33.879032 0.000000 0.000000
								CHANNELS 3 Xrotation Yrotation Zrotation
								JOINT RightHandThumb1
								{
									OFFSET -6.715286 -2.359680 3.363841
									CHANNELS 3 Xrotation Yrotation Zrotation
									JOINT RightHandThumb2
									{
										OFFSET -2.507072 -1.447464 1.447461
										CHANNELS 3 Xrotation Yrotation Zrotation
										JOINT RightHandThumb3
										{
											OFFSET -2.898338 -1.673355 1.673357
											CHANNELS 3 Xrotation Yrotation Zrotation
											End Site
											{
												OFFSET 0.295959 3.727692 -0.131651
											}
										}
									}
								}
								JOINT RightHandIndex1
								{
									OFFSET -14.190811 -0.254547 3.840278
									CHANNELS 3 Xrotation Yrotation Zrotation
									JOINT RightHandIndex2
									{
										OFFSET -3.551727 0.000000 -0.000000
										CHANNELS 3 Xrotation Yrotation Zrotation
										JOINT RightHandIndex3
										{
											OFFSET -2.894196 0.000000 0.000000
											CHANNELS 3 Xrotation Yrotation Zrotation
											End Site
											{
												OFFSET 1.000603 2.690872 0.366626
											}
										}
									}
								}
								JOINT RightHandMiddle1
								{
									OFFSET -13.776489 0.000000 0.000000
									CHANNELS 3 Xrotation Yrotation Zrotation
									JOINT RightHandMiddle2
									{
										OFFSET -3.438232 0.000000 0.000000
										CHANNELS 3 Xrotation Yrotation Zrotation
										JOINT RightHandMiddle3
										{
											OFFSET -3.691551 0.000000 0.000000
											CHANNELS 3 Xrotation Yrotation Zrotation
											End Site
											{
												OFFSET 1.082298 3.499527 0.457670
											}
										}
									}
								}
								JOINT RightHandRing1
								{
									OFFSET -13.966164 -0.268127 -3.067488
									CHANNELS 3 Xrotation Yrotation Zrotation
									JOINT RightHandRing2
									{
										OFFSET -3.162567 0.000000 0.000000
										CHANNELS 3 Xrotation Yrotation Zrotation
										JOINT RightHandRing3
										{
											OFFSET -3.324348 0.000000 0.000000
											CHANNELS 3 Xrotation Yrotation Zrotation
											End Site
											{
												OFFSET 0.861900 3.184998 0.405154
											}
										}
									}
								}
								JOINT RightHandPinky1
								{
									OFFSET -13.131393 -0.168503 -5.746925
									CHANNELS 3 Xrotation Yrotation Zrotation
									JOINT RightHandPinky2
									{
										OFFSET -2.849182 0.000000 0.000000
										CHANNELS 3 Xrotation Yrotation Zrotation
										JOINT RightHandPinky3
										{
											OFFSET -2.805038 0.000000 0.000000
											CHANNELS 3 Xrotation Yrotation Zrotation
											End Site
											{
												OFFSET 0.882500 2.642609 0.325652
											}
										}
									}
								}
							}
							JOINT Right_Sleeve
							{
								OFFSET -6.592125 -0.646545 0.805568
								CHANNELS 3 Xrotation Yrotation Zrotation
								End Site
								{
									OFFSET 0.000179 20.275787 -0.000000
								}
							}
						}
					}
				}
				JOINT Bind_Right_JacketString
				{
					OFFSET -3.534800 11.969597 7.200700
					CHANNELS 3 Xrotation Yrotation Zrotation
					JOINT Bind_Right_JacketString1
					{
						OFFSET -0.319900 -6.102600 2.794100
						CHANNELS 3 Xrotation Yrotation Zrotation
						End Site
						{
							OFFSET 0.000000 6.719452 0.000000
						}
					}
				}
				JOINT Bind_Left_JacketString
				{
					OFFSET 2.904800 11.969597 7.200700
					CHANNELS 3 Xrotation Yrotation Zrotation
					JOINT Bind_Left_JacketString1
					{
						OFFSET 0.364800 -5.904503 3.186800
						CHANNELS 3 Xrotation Yrotation Zrotation
						End Site
						{
							OFFSET 0.000000 6.719513 0.000000
						}
					}
				}
				JOINT HairE
				{
					OFFSET 5.915200 17.612701 -11.592200
					CHANNELS 3 Xrotation Yrotation Zrotation
					JOINT HairE1
					{
						OFFSET 0.289200 -7.171898 -1.284500
						CHANNELS 3 Xrotation Yrotation Zrotation
						End Site
						{
							OFFSET 0.000000 7.291756 0.000000
						}
					}
				}
				JOINT HairF
				{
					OFFSET -0.864800 17.612701 -11.592200
					CHANNELS 3 Xrotation Yrotation Zrotation
					JOINT HairF1
					{
						OFFSET 0.000000 -14.087097 -2.127501
						CHANNELS 3 Xrotation Yrotation Zrotation
						End Site
						{
							OFFSET 0.000000 14.246841 0.000000
						}
					}
				}
				JOINT HairG
				{
					OFFSET -8.087700 17.612701 -11.592200
					CHANNELS 3 Xrotation Yrotation Zrotation
					JOINT HairG1
					{
						OFFSET -0.293600 -6.081398 -0.910100
						CHANNELS 3 Xrotation Yrotation Zrotation
						End Site
						{
							OFFSET 0.000000 6.156120 0.000000
						}
					}
				}
			}
		}
	}
	JOINT Pouch
	{
		OFFSET 0.000000 4.394501 10.847300
		CHANNELS 3 Xrotation Yrotation Zrotation
		End Site
		{
			OFFSET 0.000000 21.880577 0.000000
		}
	}
	JOINT Bag
	{
		OFFSET -13.229000 4.813004 -0.593300
		CHANNELS 3 Xrotation Yrotation Zrotation
		End Site
		{
			OFFSET 0.000000 21.880577 0.000000
		}
	}
	JOINT OccupyGuyFacialAnim_Joint
	{
		OFFSET 1.000000 -70.206398 -1.655000
		CHANNELS 3 Xrotation Yrotation Zrotation
		End Site
		{
			OFFSET 0.000000 21.880577 0.000000
		}
	}
}
MOTION
Frames: 4
Frame Time: 0.033333
5.009888 41.730804 142.716827 55.157760 2.215419 -4.503291 -0.000001 0.000000 -0.000000 -134.037408 16.067996 8.145760 109.287869 8.621528 -4.685990 -33.082079 5.135925 10.677119 -0.000000 -0.000002 0.000000 0.000001 0.000000 -0.000002 -30.372789 -11.408417 -15.256348 58.588495 -11.655051 -1.961597 -9.686382 -29.846113 -16.366629 0.000001 -0.000001 0.000001 -0.000002 0.000001 -0.000000 22.042463 0.290500 -4.220856 11.156482 1.597958 -1.953307 11.191649 1.283183 -1.920580 6.544216 0.580068 -5.348881 -40.583966 -8.304754 14.875843 -0.000000 -0.000000 -0.000000 -0.000000 -0.000000 -0.000000 -0.000000 -0.000000 -0.000000 -0.000000 -0.000000 -0.000000 -0.000000 0.000000 0.000000 -0.000000 -0.000000 -0.000000 -0.000000 0.000000 0.000000 -0.000000 -0.000000 -0.000000 -0.000000 -0.000000 -0.000000 0.743067 -23.018690 -8.693326 -4.322336 -41.960598 21.095306 0.000004 -32.630450 0.000005 1.857193 -6.517515 22.677695 -0.579332 5.954958 2.763484 4.015515 3.889062 11.352281 0.000001 0.000001 -0.000000 9.180189 -4.465694 36.665306 1.806630 4.231683 -46.222626 0.000003 -0.000001 0.000001 -6.035798 6.798339 43.071876 1.698733 4.125886 -44.741981 0.000002 0.000000 -0.000001 -12.433434 14.676632 42.711509 1.676100 4.102971 -44.426436 -0.000003 0.000001 0.000001 -13.124539 23.439389 32.853077 1.230206 3.593136 -37.789746 -0.000001 0.000001 -0.000004 -0.000001 -0.000000 -0.000000 2.768971 26.493257 -0.907068 -50.631298 33.698743 28.981101 -0.000020 18.883127 0.000007 15.122239 16.651294 -22.956139 2.041023 -3.794500 3.041082 5.241737 -7.813368 -5.549959 0.000000 0.000000 0.000003 21.471383 -1.309661 -47.705712 -0.000003 0.000004 0.000002 -0.000000 0.000001 -0.000001 3.776939 2.794410 -54.156666 0.000010 -0.009318 0.114331 0.000000 -0.000000 -0.000001 -3.152238 -1.721954 -58.075152 0.000001 0.000005 0.000006 -0.000000 -0.000001 -0.000002 -7.121484 -4.199222 -57.378753 0.000000 -0.000002 0.000002 0.000000 0.000001 0.000001 0.000000 -0.000000 0.000000 -0.000002 -0.000000 -0.000001 -0.000001 -0.000000 -0.000001 -0.000002 -0.000000 -0.000001 -0.000002 -0.000000 -0.000001 -0.000002 -0.000000 -0.000001 -0.000001 -0.000000 -0.000001 -0.000002 -0.000000 -0.000001 -0.000002 -0.000000 -0.000001 -0.000002 -0.000000 -0.000001 -0.000001 -0.000000 -0.000001 -0.000001 0.000000 -0.000000 -0.000001 0.000000 -0.000000 -0.000001 0.000000 -0.000000 
5.219045 39.876190 143.352478 52.074257 0.413891 -2.965002 -0.000001 0.000000 0.000000 -135.036296 15.898179 9.284179 113.125302 9.639756 -3.551229 -33.305737 6.926685 12.090651 0.000001 0.000002 0.000000 0.000001 0.000001 0.000002 -30.921680 -12.063672 -16.308827 65.452132 -10.270288 -1.258929 -4.356675 -29.979418 -15.196259 -0.000001 -0.000000 0.000000 0.000001 -0.000000 -0.000002 21.593443 0.560853 -5.180774 10.973920 1.608055 -1.874302 11.000552 1.383991 -1.862816 2.056196 0.395888 -1.841281 -35.506824 -3.302982 11.509360 0.000001 0.000000 -0.000000 0.000001 0.000000 -0.000000 0.000001 0.000000 -0.000000 0.000001 0.000000 -0.000000 0.000001 0.000000 -0.000000 0.000001 0.000000 -0.000000 0.000001 0.000000 -0.000000 0.000001 0.000000 -0.000000 0.000001 0.000000 -0.000000 0.997194 -21.003605 -7.298540 0.616449 -39.664906 21.143602 -0.000020 -34.152380 -0.000009 0.157734 -4.791810 18.524718 2.803086 6.321446 -2.997249 4.197821 4.416968 9.444981 0.000000 0.000000 -0.000006 9.576755 -6.201944 36.272133 1.365815 3.761153 -39.904052 0.000002 0.000001 0.000004 -4.290292 5.011132 42.265036 1.305296 3.687724 -38.972383 -0.000001 0.000000 0.000001 -10.564524 12.685791 41.990330 1.330790 3.718968 -39.366943 -0.000001 0.000000 -0.000000 -10.009246 21.871838 27.860376 0.904437 3.128909 -32.237543 -0.000001 0.000004 0.000002 -0.000000 0.000000 0.000000 2.837505 28.009793 -0.557481 -53.161736 32.065105 33.275725 -0.000010 16.624633 0.000005 20.678790 17.212263 -22.543208 2.041026 -3.794497 3.041087 5.241735 -7.813353 -5.549962 -0.000000 0.000000 0.000004 21.451872 -1.322101 -47.691150 0.000003 0.000012 0.000020 -0.000001 0.000001 -0.000001 3.758582 2.781089 -54.159312 0.000013 -0.009340 0.114662 -0.000001 0.000000 -0.000002 -3.173352 -1.735137 -58.077536 0.000001 -0.000027 0.000006 0.000002 -0.000000 -0.000001 -7.141753 -4.211492 -57.435395 0.000011 -0.009117 0.111903 -0.000001 0.000002 -0.000001 -0.000002 -0.000000 0.000000 -0.000000 0.000000 0.000000 0.000000 -0.000000 -0.000001 -0.000000 0.000000 0.000000 -0.000000 0.000000 0.000000 -0.000000 0.000000 0.000000 0.000000 -0.000000 -0.000001 -0.000000 0.000000 0.000000 -0.000000 0.000000 0.000000 -0.000000 0.000000 0.000000 0.000000 -0.000000 -0.000001 -0.000001 0.000000 0.000000 -0.000001 0.000000 0.000000 -0.000001 0.000000 0.000000 
5.563276 38.072948 143.693405 49.917273 -0.241516 -1.130693 -0.000005 0.000000 0.000000 -136.534607 17.037249 9.797608 116.788148 10.349833 -2.515696 -32.236201 8.769726 12.555879 0.000000 -0.000002 0.000000 0.000000 -0.000002 0.000000 -33.970086 -11.777492 -18.148072 74.604032 -11.221347 -0.131305 -0.643354 -29.957886 -12.975924 -0.000001 -0.000000 0.000001 0.000003 0.000001 -0.000001 21.168831 0.214112 -5.943878 10.766398 1.409827 -1.779911 10.785159 1.233316 -1.775124 -4.463580 0.141357 2.047154 -28.647521 1.091051 8.375773 -0.000001 -0.000000 -0.000000 -0.000001 -0.000000 -0.000000 -0.000001 -0.000000 0.000000 -0.000001 -0.000000 -0.000000 -0.000001 0.000001 -0.000000 -0.000001 -0.000000 -0.000000 -0.000001 0.000001 -0.000000 -0.000001 -0.000000 -0.000000 -0.000001 -0.000000 -0.000000 1.340018 -19.698510 -4.478625 4.046864 -36.942379 18.860734 -0.000005 -37.300602 -0.000004 -3.301290 -3.038862 19.912547 5.872310 6.307393 -8.179310 4.403852 5.019908 7.484620 0.000000 0.000002 -0.000000 9.777778 -6.520821 36.435306 1.172693 3.517857 -36.862340 0.000001 0.000001 -0.000000 -3.878193 4.761771 41.238387 1.026665 3.314504 -34.412078 0.000000 0.000001 -0.000004 -9.960843 12.425783 40.971405 1.056667 3.357826 -34.927644 -0.000001 0.000001 -0.000001 -8.641727 21.880615 24.698280 0.662464 2.708056 -27.488074 -0.000001 0.000001 -0.000001 -0.000000 0.000000 -0.000000 3.067586 27.629573 -1.614784 -55.996544 28.134538 38.795543 0.000004 18.449792 0.000016 26.129348 15.897556 -21.511717 2.041037 -3.794503 3.041078 5.241732 -7.813369 -5.549962 -0.000000 -0.000001 0.000004 21.625735 -1.287947 -48.052017 0.000000 0.000011 0.000011 -0.000000 -0.000002 -0.000000 3.908124 2.888341 -54.164011 0.000001 0.000000 0.000001 0.000001 -0.000000 0.000001 -2.991815 -1.632981 -57.969257 -0.000001 -0.000005 0.000002 -0.000000 -0.000002 -0.000001 -6.939928 -4.104959 -57.201957 0.000005 0.000007 0.000004 0.000001 0.000001 -0.000001 -0.000002 -0.000000 -0.000000 0.000000 -0.000000 -0.000001 0.000000 -0.000000 -0.000001 0.000000 -0.000000 -0.000001 0.000000 -0.000000 -0.000001 0.000000 -0.000000 -0.000001 0.000000 -0.000000 -0.000001 0.000000 -0.000000 -0.000001 0.000000 -0.000000 -0.000001 0.000000 -0.000000 -0.000001 0.000000 -0.000000 -0.000001 -0.000005 0.000000 0.000000 -0.000005 0.000000 0.000000 -0.000005 0.000000 0.000000 
5.999013 36.527172 143.646652 47.863650 0.192013 1.189188 -0.000002 -0.000000 0.000000 -137.995940 19.145609 9.504907 119.814372 10.710988 -1.850599 -31.112584 10.093813 12.591184 0.000001 -0.000001 0.000000 -0.000000 0.000001 -0.000000 -38.061294 -10.744004 -20.118592 84.317189 -13.970177 0.469375 0.495808 -29.805381 -12.141107 0.000000 -0.000001 -0.000001 -0.000001 0.000000 0.000001 20.936362 -0.581513 -6.457724 10.618924 1.087991 -1.850469 10.634147 0.894394 -1.835415 -10.062545 -0.112002 4.660064 -23.592252 3.583928 7.010056 -0.000003 0.000000 0.000000 -0.000003 0.000000 0.000000 -0.000003 0.000000 -0.000000 -0.000003 0.000000 0.000000 -0.000001 0.000000 0.000000 -0.000003 0.000000 0.000000 -0.000001 0.000000 0.000000 -0.000003 0.000000 0.000000 -0.000003 0.000000 0.000000 1.532199 -19.837996 -3.009849 6.883331 -34.869273 17.592979 -0.000003 -38.389075 -0.000009 -6.347785 -3.107406 21.122696 8.239055 6.022536 -12.173566 4.607585 5.659062 5.792686 0.000001 -0.000000 0.000004 9.693296 -6.462561 36.600313 1.190534 3.541476 -37.152387 0.000003 -0.000001 -0.000000 -3.957418 4.839522 41.311986 1.032795 3.323445 -34.518086 0.000001 0.000001 -0.000001 -10.038441 12.528234 40.970063 1.054528 3.354782 -34.891256 -0.000001 0.000000 -0.000002 -8.555772 22.024696 24.369832 0.646832 2.677798 -27.155089 0.000001 0.000001 -0.000002 -0.000000 0.000001 -0.000000 3.440415 26.945974 -3.715484 -57.555395 24.984315 43.332735 0.000011 19.385827 -0.000016 28.854698 14.398163 -21.265466 2.041028 -3.794498 3.041086 5.241737 -7.813350 -5.549976 0.000000 -0.000000 0.000006 21.519841 -1.518214 -48.433978 -0.000001 -0.000002 0.000003 0.000001 -0.000001 -0.000002 3.744051 2.770549 -54.160883 0.000012 -0.006482 0.079618 0.000001 -0.000000 -0.000001 -3.124244 -1.764994 -57.610638 0.000003 0.000014 0.000002 0.000001 0.000000 -0.000000 -7.093963 -4.254283 -56.864071 0.000003 -0.000014 0.000011 0.000001 0.000002 -0.000001 0.000001 -0.000000 0.000001 -0.000000 -0.000000 -0.000000 -0.000000 -0.000000 -0.000000 -0.000000 -0.000000 -0.000000 -0.000000 -0.000000 -0.000000 -0.000000 -0.000000 -0.000000 -0.000000 -0.000000 -0.000000 -0.000000 -0.000000 -0.000000 -0.000000 -0.000000 -0.000000 -0.000000 -0.000000 -0.000000 -0.000000 -0.000000 -0.000000 -0.000002 -0.000000 0.000000 -0.000002 -0.000000 0.000000 -0.000002 -0.000000 0.000000 
